<?xml version="1.0" ?><!DOCTYPE svg  PUBLIC '-//W3C//DTD SVG 1.1//EN'  'http://www.w3.org/Graphics/SVG/1.1/DTD/svg11.dtd'><svg enable-background="new 0 0 512 512" height="512px" id="Layer_1" version="1.1" viewBox="0 0 512 512" width="512px" xml:space="preserve" xmlns="http://www.w3.org/2000/svg" xmlns:xlink="http://www.w3.org/1999/xlink"><g><path d="M314.34,261.395c0,31.961-25.898,57.922-57.923,57.922c-31.957,0-57.918-25.961-57.918-57.922   c0-31.998,25.961-57.919,57.918-57.919C288.441,203.476,314.34,229.396,314.34,261.395z" fill="#174A97"/><path d="M418.787,472.771H100.154v-11.718c0-23.807-16.433-119.542-27.561-180.123l-19.961,15.263L5.314,240.055   l255.087-201.06l247.109,197.261l-49.849,55.796l-11.628-9.085c-11.089,60.236-27.389,154.916-27.291,178.041L418.787,472.771z    M122.978,449.336h272.925c4.299-49.547,29.479-183.483,30.623-189.684l3.572-18.955l24.72,19.353l18.676-20.936L260.304,68.914   L38.85,243.468L56.155,264l32.507-24.849l3.479,18.715C93.333,264.115,118.63,399.239,122.978,449.336z" fill="#174A97"/></g></svg>